<?xml version="1.0" standalone="no"?>
<!DOCTYPE svg PUBLIC "-//W3C//DTD SVG 20010904//EN"
 "http://www.w3.org/TR/2001/REC-SVG-20010904/DTD/svg10.dtd">
<svg version="1.0" xmlns="http://www.w3.org/2000/svg"
 width="45.000000pt" height="45.000000pt" viewBox="0 0 45.000000 45.000000"
 preserveAspectRatio="xMidYMid meet">
<metadata>
Created by potrace 1.16, written by Peter Selinger 2001-2019
</metadata>
<g transform="translate(0.000000,45.000000) scale(0.100000,-0.100000)"
fill="#000000" stroke="none">
<path d="M135 437 c-74 -34 -119 -106 -120 -194 0 -34 -4 -65 -8 -69 -15 -15
-6 -33 29 -53 56 -33 64 -29 64 35 0 52 -1 56 -21 51 -20 -5 -21 -3 -17 47 5
66 36 112 92 137 52 23 90 23 142 0 81 -37 117 -137 79 -222 -14 -30 -15 -43
-7 -51 32 -32 80 83 67 161 -8 51 -47 110 -92 141 -44 30 -159 39 -208 17z"/>
<path d="M170 310 c-24 -24 -27 -92 -5 -130 22 -38 19 -44 -30 -68 -52 -25
-69 -63 -41 -90 25 -25 237 -25 262 0 28 27 11 65 -41 90 -49 24 -52 30 -30
68 8 14 14 44 15 68 0 53 -26 82 -75 82 -22 0 -43 -8 -55 -20z"/>
</g>
</svg>
