<?xml version="1.0" standalone="no"?>
<!DOCTYPE svg PUBLIC "-//W3C//DTD SVG 20010904//EN"
 "http://www.w3.org/TR/2001/REC-SVG-20010904/DTD/svg10.dtd">
<svg version="1.0" xmlns="http://www.w3.org/2000/svg"
 width="42.000000pt" height="42.000000pt" viewBox="0 0 42.000000 42.000000"
 preserveAspectRatio="xMidYMid meet">
<metadata>
Created by potrace 1.16, written by Peter Selinger 2001-2019
</metadata>
<g transform="translate(0.000000,42.000000) scale(0.100000,-0.100000)"
fill="#000000" stroke="none">
<path d="M115 401 c-70 -42 -112 -121 -102 -192 3 -22 1 -42 -4 -45 -19 -11
-8 -33 27 -53 19 -12 39 -21 45 -21 5 0 9 25 9 56 0 44 -3 55 -14 51 -21 -8
-28 20 -16 63 43 162 257 161 300 -1 8 -29 7 -48 -5 -81 -19 -56 -19 -68 3
-68 37 0 63 110 42 175 -16 47 -66 104 -107 121 -48 20 -142 18 -178 -5z"/>
<path d="M160 290 c-25 -25 -27 -96 -3 -129 18 -27 17 -28 -46 -63 -24 -13
-31 -24 -31 -48 0 -40 26 -50 130 -50 107 0 132 10 128 52 -2 27 -10 37 -43
53 -22 11 -42 21 -44 23 -3 1 3 16 12 31 9 16 17 48 17 70 0 50 -27 81 -70 81
-17 0 -39 -9 -50 -20z"/>
</g>
</svg>
