<?xml version="1.0" standalone="no"?>
<!DOCTYPE svg PUBLIC "-//W3C//DTD SVG 20010904//EN"
 "http://www.w3.org/TR/2001/REC-SVG-20010904/DTD/svg10.dtd">
<svg version="1.0" xmlns="http://www.w3.org/2000/svg"
 width="43.000000pt" height="43.000000pt" viewBox="0 0 43.000000 43.000000"
 preserveAspectRatio="xMidYMid meet">
<metadata>
Created by potrace 1.16, written by Peter Selinger 2001-2019
</metadata>
<g transform="translate(0.000000,43.000000) scale(0.100000,-0.100000)"
fill="#000000" stroke="none">
<path d="M115 376 c-42 -18 -83 -69 -91 -112 -5 -26 0 -47 18 -84 21 -41 23
-52 11 -61 -17 -15 -17 -39 1 -39 8 0 27 5 43 12 15 6 34 10 41 9 8 -1 12 12
12 38 0 76 85 140 165 125 36 -6 37 -6 30 17 -29 90 -139 135 -230 95z"/>
<path d="M223 230 c-39 -23 -53 -48 -53 -92 1 -58 48 -98 117 -98 21 0 53 -4
72 -10 42 -12 57 -4 37 19 -14 16 -14 21 0 57 14 36 14 45 1 76 -26 62 -112
86 -174 48z"/>
</g>
</svg>
